<?xml version="1.0" encoding="UTF-8"?> <svg xmlns="http://www.w3.org/2000/svg" xmlns:xlink="http://www.w3.org/1999/xlink" id="Group_69" data-name="Group 69" width="459.45" height="150" viewBox="0 0 459.45 150"><defs><clipPath id="clip-path"><path id="Path_66" data-name="Path 66" d="M23.3,66.494A43.119,43.119,0,1,0,66.424,23.376,43.119,43.119,0,0,0,23.3,66.494" transform="translate(-23.305 -23.376)" fill="none"></path></clipPath><linearGradient id="linear-gradient" x1="-0.365" y1="1.366" x2="-0.349" y2="1.366" gradientUnits="objectBoundingBox"><stop offset="0" stop-color="#f6d8bb"></stop><stop offset="0.189" stop-color="#f6d8bb"></stop><stop offset="0.754" stop-color="#f5821e"></stop><stop offset="1" stop-color="#f5821e"></stop></linearGradient><clipPath id="clip-path-2"><rect id="Rectangle_1079" data-name="Rectangle 1079" width="459.45" height="150" fill="none"></rect></clipPath><clipPath id="clip-path-3"><path id="Path_310" data-name="Path 310" d="M31.61,75A43.295,43.295,0,1,0,74.9,31.7,43.3,43.3,0,0,0,31.61,75" fill="none"></path></clipPath><linearGradient id="linear-gradient-2" x1="-0.365" y1="1.366" x2="-0.354" y2="1.366" xlink:href="#linear-gradient"></linearGradient></defs><g id="Group_66" data-name="Group 66" transform="translate(31.481 31.577)"><g id="Group_65" data-name="Group 65" clip-path="url(#clip-path)"><rect id="Rectangle_42" data-name="Rectangle 42" width="86.237" height="86.236" transform="translate(0 0)" fill="url(#linear-gradient)"></rect></g></g><g id="Group_68" data-name="Group 68" transform="translate(0 0)"><g id="Group_249" data-name="Group 249" transform="translate(-537 -580)"><g id="Group_248" data-name="Group 248" transform="translate(537 580)"><g id="Group_243" data-name="Group 243"><g id="Group_242" data-name="Group 242" clip-path="url(#clip-path-2)"><path id="Path_295" data-name="Path 295" d="M191.185,108.3h4.8a6.308,6.308,0,0,0,5.267-2.521q1.947-2.521,1.947-7.646V96.087q0-4.714-1.947-7.031a6.531,6.531,0,0,0-5.267-2.315h-4.8Zm-3.608,3.28V83.461h8.738a9.6,9.6,0,0,1,7.829,3.423q2.828,3.424,2.827,10.227,0,7.216-2.827,10.843a9.374,9.374,0,0,1-7.829,3.628Z" fill="#5063b2"></path><path id="Path_296" data-name="Path 296" d="M211.967,90.021h3.361v21.561h-3.362Zm-.081-8.075h3.484v3.893h-3.484Z" fill="#5063b2"></path><path id="Path_297" data-name="Path 297" d="M226.6,112.074a7.71,7.71,0,0,1-4-.921,5.6,5.6,0,0,1-2.234-2.359,6.859,6.859,0,0,1-.7-3.034c0-.3.007-.519.02-.655s.022-.219.022-.246h3.524v.409a3.759,3.759,0,0,0,1.025,2.931,3.6,3.6,0,0,0,2.5.923,3.4,3.4,0,0,0,2.275-.82,3.444,3.444,0,0,0,.246-4.489,5.371,5.371,0,0,0-1.825-1.231q-1.105-.47-2.376-.9A12.525,12.525,0,0,1,222.7,100.6a5.276,5.276,0,0,1-1.825-1.824,5.864,5.864,0,0,1-.717-3.093,6.331,6.331,0,0,1,.82-3.3,5.405,5.405,0,0,1,2.337-2.111,8.07,8.07,0,0,1,3.568-.736,6.621,6.621,0,0,1,3.381.8,5.353,5.353,0,0,1,2.091,2.152,6.22,6.22,0,0,1,.716,2.952c0,.138-.005.286-.019.451s-.02.273-.02.328h-3.482v-.37a4.38,4.38,0,0,0-.635-2.315,2.534,2.534,0,0,0-2.357-1.046,2.931,2.931,0,0,0-1.825.492,2.451,2.451,0,0,0-.86,1.168,4.053,4.053,0,0,0-.226,1.291,2.375,2.375,0,0,0,.717,1.845,5.493,5.493,0,0,0,1.824,1.066q1.105.409,2.379.84a11.178,11.178,0,0,1,2.377,1.127,5.558,5.558,0,0,1,1.824,1.907,6.273,6.273,0,0,1,.717,3.218,7.131,7.131,0,0,1-.9,3.77,5.437,5.437,0,0,1-2.438,2.173,8.524,8.524,0,0,1-3.546.7" fill="#5063b2"></path><path id="Path_298" data-name="Path 298" d="M243.984,112.074a6.2,6.2,0,0,1-5.6-2.726q-1.783-2.726-1.783-8.548t1.8-8.547a6.213,6.213,0,0,1,5.575-2.725q3.526,0,5.063,2.172a10.877,10.877,0,0,1,1.537,6.312h-3.485a9.949,9.949,0,0,0-.655-4.14,2.478,2.478,0,0,0-2.46-1.354,3.068,3.068,0,0,0-2.931,1.887,13.272,13.272,0,0,0-.923,5.615v1.558a13.281,13.281,0,0,0,.923,5.617,3.066,3.066,0,0,0,2.931,1.884,2.631,2.631,0,0,0,2.542-1.413,9.025,9.025,0,0,0,.737-4.079h3.32a12.915,12.915,0,0,1-.655,4.182,6.742,6.742,0,0,1-2.111,3.115,5.877,5.877,0,0,1-3.834,1.189" fill="#5063b2"></path><path id="Path_299" data-name="Path 299" d="M261.282,109.081a3.377,3.377,0,0,0,3.137-1.884,11.889,11.889,0,0,0,1.046-5.617v-1.558a11.883,11.883,0,0,0-1.046-5.615,3.55,3.55,0,0,0-6.273,0,11.882,11.882,0,0,0-1.044,5.615v1.558a11.892,11.892,0,0,0,1.044,5.617,3.377,3.377,0,0,0,3.137,1.884m0,2.993a6.637,6.637,0,0,1-5.74-2.726q-1.965-2.726-1.967-8.548t1.967-8.549a7.408,7.408,0,0,1,11.479,0q1.965,2.727,1.967,8.547t-1.967,8.553a6.636,6.636,0,0,1-5.74,2.726" fill="#5063b2"></path><path id="Path_300" data-name="Path 300" d="M277.229,111.579l-6.191-21.562h3.69l2.91,10.944q.2.657.389,1.354t.37,1.372l.369,1.354q.185.676.347,1.374h.165q.2-.7.39-1.394t.367-1.394l.369-1.394c.123-.465.24-.928.35-1.394l2.91-10.821h3.4l-6.188,21.561Z" fill="#5063b2"></path><path id="Path_301" data-name="Path 301" d="M292.722,98.792h8.117a9.7,9.7,0,0,0-.9-4.672,2.885,2.885,0,0,0-2.664-1.6,3.671,3.671,0,0,0-3.3,1.579,9.747,9.747,0,0,0-1.251,4.693m4.591,13.283a7.259,7.259,0,0,1-6.087-2.645q-2.072-2.642-2.071-8.629,0-5.819,2.029-8.547a7.1,7.1,0,0,1,6.088-2.725,6.236,6.236,0,0,1,5.309,2.356q1.783,2.359,1.783,7.769v2.132H292.682a10.622,10.622,0,0,0,1.187,5.534,3.914,3.914,0,0,0,3.526,1.761,3.2,3.2,0,0,0,2.623-1.29,5.558,5.558,0,0,0,1.025-3.546h3.32a8.1,8.1,0,0,1-1.948,5.718,6.616,6.616,0,0,1-5.1,2.111" fill="#5063b2"></path><path id="Path_302" data-name="Path 302" d="M308.588,111.582V90.021h2.542l.451,2.829h.246a7.066,7.066,0,0,1,1.27-2.276,2.917,2.917,0,0,1,2.377-1.044,4.772,4.772,0,0,1,1.6.327v3.484h-1.108a4.3,4.3,0,0,0-1.988.471A3.394,3.394,0,0,0,312.5,95.39a6.878,6.878,0,0,0-.554,3.033v13.16Z" fill="#5063b2"></path><path id="Path_303" data-name="Path 303" d="M321.3,119.044a9.772,9.772,0,0,1-1.291-.081,7.5,7.5,0,0,1-1.127-.246v-2.338h1.187a3.762,3.762,0,0,0,2.521-1.024,6.842,6.842,0,0,0,1.744-3.771l-6.6-21.563h3.685l3.647,12.872q.123.492.266.964t.288.963c.1.328.189.65.288.963s.184.636.266.963h.165c.08-.327.163-.657.245-.983s.158-.656.227-.985.14-.655.224-.983.163-.655.244-.983l3.074-12.791h3.4l-5.486,20.458a24.736,24.736,0,0,1-1.537,4.283,9.6,9.6,0,0,1-2.236,3.115,4.628,4.628,0,0,1-3.2,1.168" fill="#5063b2"></path><path id="Path_304" data-name="Path 304" d="M348.105,102.031h9.141l-3.812-12.5c-.081-.33-.178-.739-.286-1.231s-.234-1.12-.37-1.886h-.166q-.2,1.189-.349,1.928a8.4,8.4,0,0,1-.307,1.189Zm-6.518,9.552,8.936-28.121h4.633l8.936,28.121H360.2l-1.929-6.272H347.121l-1.928,6.272Z" fill="#5063b2"></path><rect id="Rectangle_1077" data-name="Rectangle 1077" width="3.361" height="29.638" transform="translate(366.1 81.946)" fill="#5063b2"></rect><rect id="Rectangle_1078" data-name="Rectangle 1078" width="3.362" height="29.638" transform="translate(373.562 81.946)" fill="#5063b2"></rect><path id="Path_305" data-name="Path 305" d="M381.964,90.021h3.362v21.561h-3.362Zm-.081-8.075h3.484v3.893h-3.484Z" fill="#5063b2"></path><path id="Path_306" data-name="Path 306" d="M396.149,109.081a4.12,4.12,0,0,0,2.09-.593,4.674,4.674,0,0,0,1.7-1.783,5.9,5.9,0,0,0,.675-2.953v-1.967a21.475,21.475,0,0,0-3.873.307,5.044,5.044,0,0,0-2.583,1.168,3.314,3.314,0,0,0-.923,2.542,3.458,3.458,0,0,0,.758,2.563,3.013,3.013,0,0,0,2.153.716m-.779,2.993a8.007,8.007,0,0,1-1.757-.223,5.117,5.117,0,0,1-1.865-.862,4.688,4.688,0,0,1-1.455-1.822,7.339,7.339,0,0,1-.574-3.158,6.481,6.481,0,0,1,1.414-4.529,7.393,7.393,0,0,1,3.894-2.11,24.817,24.817,0,0,1,5.6-.575V96a4.3,4.3,0,0,0-.675-2.521,3.152,3.152,0,0,0-2.734-.964,2.89,2.89,0,0,0-2.6,1.087,4.13,4.13,0,0,0-.716,2.315v.493h-3.32a2.176,2.176,0,0,1-.042-.411v-.492a5.322,5.322,0,0,1,1.946-4.468,7.868,7.868,0,0,1,4.982-1.516,6.768,6.768,0,0,1,4.9,1.578,5.927,5.927,0,0,1,1.62,4.447v12.1a1.423,1.423,0,0,0,.369,1.108,1.157,1.157,0,0,0,.778.327h1.313v2.337a4.106,4.106,0,0,1-.842.328,4.9,4.9,0,0,1-1.374.163,3.292,3.292,0,0,1-2.192-.738,3.739,3.739,0,0,1-1.209-1.926h-.2a5.9,5.9,0,0,1-2.192,2.069,6.2,6.2,0,0,1-3.054.759" fill="#5063b2"></path><path id="Path_307" data-name="Path 307" d="M409.471,111.582V90.021h2.542l.451,2.5h.246a5.543,5.543,0,0,1,2.253-2.3,6.363,6.363,0,0,1,2.952-.7,5.243,5.243,0,0,1,3.874,1.453q1.455,1.457,1.456,5.063v15.545h-3.362V96.293q0-2.254-.84-3.014a3.148,3.148,0,0,0-2.194-.758,3.507,3.507,0,0,0-2.808,1.558,6.928,6.928,0,0,0-1.209,4.344v13.16Z" fill="#5063b2"></path><path id="Path_308" data-name="Path 308" d="M434.559,112.074a6.2,6.2,0,0,1-5.6-2.726q-1.784-2.726-1.783-8.548t1.8-8.547a6.215,6.215,0,0,1,5.576-2.725q3.523,0,5.061,2.172a10.87,10.87,0,0,1,1.537,6.312h-3.484a9.949,9.949,0,0,0-.655-4.14,2.478,2.478,0,0,0-2.46-1.354,3.069,3.069,0,0,0-2.933,1.887,13.255,13.255,0,0,0-.921,5.615v1.558a13.264,13.264,0,0,0,.921,5.617,3.069,3.069,0,0,0,2.933,1.884,2.625,2.625,0,0,0,2.541-1.413,9.011,9.011,0,0,0,.739-4.079h3.319a12.884,12.884,0,0,1-.655,4.182,6.733,6.733,0,0,1-2.11,3.115,5.883,5.883,0,0,1-3.834,1.189" fill="#5063b2"></path><path id="Path_309" data-name="Path 309" d="M447.8,98.792h8.117a9.709,9.709,0,0,0-.9-4.672,2.886,2.886,0,0,0-2.664-1.6,3.677,3.677,0,0,0-3.3,1.579,9.767,9.767,0,0,0-1.249,4.693m4.591,13.283a7.258,7.258,0,0,1-6.087-2.645q-2.073-2.642-2.071-8.629,0-5.819,2.029-8.547a7.1,7.1,0,0,1,6.088-2.725,6.235,6.235,0,0,1,5.307,2.356q1.785,2.359,1.783,7.769v2.132H447.757a10.613,10.613,0,0,0,1.189,5.534,3.915,3.915,0,0,0,3.524,1.761,3.2,3.2,0,0,0,2.622-1.29,5.558,5.558,0,0,0,1.027-3.546h3.319a8.112,8.112,0,0,1-1.947,5.718,6.616,6.616,0,0,1-5.1,2.111" fill="#5063b2"></path></g></g><g id="Group_245" data-name="Group 245"><g id="Group_244" data-name="Group 244" clip-path="url(#clip-path-3)"><rect id="Rectangle_1080" data-name="Rectangle 1080" width="86.59" height="86.591" transform="translate(31.61 31.705)" fill="url(#linear-gradient-2)"></rect></g></g><g id="Group_247" data-name="Group 247"><g id="Group_246" data-name="Group 246" clip-path="url(#clip-path-2)"><path id="Path_311" data-name="Path 311" d="M75,150a74.654,74.654,0,0,0,43.224-13.7H31.776A74.654,74.654,0,0,0,75,150M13.7,118.224V31.776a75.019,75.019,0,0,0,0,86.448m104.591,18.023a75.431,75.431,0,0,0,17.952-17.952H118.295Zm-86.59,0V118.295H13.753A75.413,75.413,0,0,0,31.7,136.247M13.753,31.7H31.7V13.753A75.413,75.413,0,0,0,13.753,31.7M118.295,13.753V31.7h17.952a75.431,75.431,0,0,0-17.952-17.952m18,18.023v86.448a75.019,75.019,0,0,0,0-86.448M31.776,13.7h86.448a75.019,75.019,0,0,0-86.448,0" fill="#5063b2"></path><path id="Path_312" data-name="Path 312" d="M118.295,118.295H31.7V31.7h86.59ZM75,13.7A61.3,61.3,0,1,0,136.3,75,61.3,61.3,0,0,0,75,13.7" fill="#7496ce"></path><path id="Path_313" data-name="Path 313" d="M75.21,0h-.42C73.277,62.987,62.977,73.271,0,74.787v.425C62.973,76.728,73.269,87.029,74.787,150h.425c1.51-62.71,11.729-73.183,74-74.768v-.464C86.935,73.185,76.717,62.722,75.21,0" fill="#fff"></path><path id="Path_314" data-name="Path 314" d="M275.94,38.795h31.59v-7.7H275.94ZM286.7,68.233h10.118V31.1H286.7ZM253.3,30.857a11.392,11.392,0,0,0-4.493,1.7,6.944,6.944,0,0,0-2.5,3.228,14.572,14.572,0,0,0-.806,5.274,11.035,11.035,0,0,0,1.829,6.619,14.189,14.189,0,0,0,6.243,4.36L261,55a10.863,10.863,0,0,1,1.8.752,2.231,2.231,0,0,1,.942.916,3.283,3.283,0,0,1,.269,1.453,2.472,2.472,0,0,1-.376,1.479,2.085,2.085,0,0,1-1.345.7,15.624,15.624,0,0,1-2.8.189q-1.078,0-2.933-.027t-4.359-.108q-2.5-.081-5.733-.134l-.59,7.1a50.036,50.036,0,0,0,8.206,1.4q3.633.27,5.517.269a33.53,33.53,0,0,0,6.861-.592,11.605,11.605,0,0,0,4.467-1.83,6.89,6.89,0,0,0,2.448-3.389,16.1,16.1,0,0,0,.755-5.275,11.655,11.655,0,0,0-1.8-6.754q-1.8-2.608-6.323-4.385l-6.942-2.581a9,9,0,0,1-2.772-1.372,2.446,2.446,0,0,1-.781-1.964,3.046,3.046,0,0,1,.215-1.266,1.453,1.453,0,0,1,.727-.7,4.112,4.112,0,0,1,1.345-.323c.557-.054,1.245-.081,2.072-.081q3.281,0,6.7.054t5.785.108L273,32.071a32.029,32.029,0,0,0-6.673-1.345q-3.447-.323-6.3-.377a38.086,38.086,0,0,0-6.727.512m-31.058,0a11.407,11.407,0,0,0-4.493,1.7,6.944,6.944,0,0,0-2.5,3.228,14.572,14.572,0,0,0-.806,5.274,11.029,11.029,0,0,0,1.83,6.619,14.186,14.186,0,0,0,6.242,4.36L229.944,55a10.95,10.95,0,0,1,1.8.752,2.239,2.239,0,0,1,.943.916,3.311,3.311,0,0,1,.269,1.453,2.466,2.466,0,0,1-.377,1.479,2.085,2.085,0,0,1-1.345.7,15.624,15.624,0,0,1-2.8.189q-1.076,0-2.933-.027t-4.359-.108q-2.5-.081-5.732-.134l-.592,7.1a50.042,50.042,0,0,0,8.208,1.4q3.633.27,5.515.269A33.6,33.6,0,0,0,235.4,68.4a11.608,11.608,0,0,0,4.466-1.83,6.892,6.892,0,0,0,2.449-3.389,16.125,16.125,0,0,0,.754-5.275,11.638,11.638,0,0,0-1.8-6.754q-1.8-2.609-6.323-4.385l-6.942-2.585a9,9,0,0,1-2.772-1.372,2.45,2.45,0,0,1-.781-1.964,3.046,3.046,0,0,1,.215-1.266,1.467,1.467,0,0,1,.728-.7,4.112,4.112,0,0,1,1.345-.323q.832-.081,2.071-.081,3.283,0,6.7.054t5.786.108l.646-6.566a32.029,32.029,0,0,0-6.673-1.345q-3.445-.323-6.3-.377a38.087,38.087,0,0,0-6.727.512m-34.67.242V60.269a7.985,7.985,0,0,0,2.234,5.865,8.414,8.414,0,0,0,6.268,2.26q4.36,0,8.828-.08a84.158,84.158,0,0,0,8.5-.566l-.484-7.588h-12.7a2.735,2.735,0,0,1-1.883-.62,2.144,2.144,0,0,1-.7-1.694V31.1Z" fill="#7496ce"></path></g></g></g></g></g></svg> 